<svg width="1280" height="720" viewBox="0 0 1280 720" fill="none" xmlns="http://www.w3.org/2000/svg">
  <rect width="1280" height="720" rx="40" fill="#120B12"/>
  <rect width="1280" height="720" rx="40" fill="url(#bg)"/>
  <circle cx="175" cy="130" r="210" fill="#D86C92" fill-opacity="0.16"/>
  <circle cx="1080" cy="590" r="260" fill="#A85BFF" fill-opacity="0.10"/>
  <circle cx="1045" cy="120" r="180" fill="#F59EAE" fill-opacity="0.08"/>

  <rect x="54" y="48" width="1172" height="624" rx="30" fill="#171118" fill-opacity="0.82" stroke="#4A2436"/>

  <rect x="92" y="94" width="520" height="532" rx="26" fill="#1A131B" stroke="#5A2D42"/>
  <rect x="676" y="94" width="512" height="254" rx="26" fill="#1A131B" stroke="#5A2D42"/>
  <rect x="676" y="372" width="244" height="254" rx="26" fill="#1A131B" stroke="#5A2D42"/>
  <rect x="944" y="372" width="244" height="254" rx="26" fill="#1A131B" stroke="#5A2D42"/>

  <rect x="122" y="124" width="74" height="74" rx="20" fill="#1A0F16" stroke="#6B3248" stroke-width="2"/>
  <circle cx="172" cy="149" r="8" fill="#DC6D8F"/>
  <circle cx="172" cy="149" r="15" stroke="#8C3F58" stroke-width="3"/>
  <line x1="146" y1="142" x2="146" y2="173" stroke="#A78F9B" stroke-width="4" stroke-linecap="round"/>
  <path d="M131 141L146 181H131V141Z" fill="#D67B97"/>
  <path d="M148 149L171 173L148 181V149Z" fill="#DDC0D0"/>
  <rect x="121" y="185" width="56" height="7" rx="3.5" fill="#E9C9D7"/>

  <text x="222" y="152" fill="#F4D4E2" font-size="54" font-family="Georgia, serif" font-weight="700" letter-spacing="10">VELA</text>
  <rect x="440" y="116" width="92" height="42" rx="21" fill="#27121C" stroke="#CE5D87" stroke-width="2"/>
  <text x="466" y="144" fill="#E978A0" font-size="24" font-family="Inter, Arial, sans-serif" font-weight="700" letter-spacing="8">AI</text>
  <text x="223" y="190" fill="#B89FAC" font-size="22" font-family="Inter, Arial, sans-serif" letter-spacing="6">SPA MARKETING PLATFORM</text>

  <text x="122" y="264" fill="#FFFFFF" font-size="56" font-family="Inter, Arial, sans-serif" font-weight="800">AI-powered growth OS</text>
  <text x="122" y="326" fill="#FFFFFF" font-size="56" font-family="Inter, Arial, sans-serif" font-weight="800">for Vietnamese spas</text>

  <text x="122" y="385" fill="#CDBAC3" font-size="24" font-family="Inter, Arial, sans-serif">
    Create content, manage leads, track tasks, and prepare
  </text>
  <text x="122" y="418" fill="#CDBAC3" font-size="24" font-family="Inter, Arial, sans-serif">
    Facebook / Instagram posting from one premium dashboard.
  </text>

  <rect x="122" y="468" width="186" height="60" rx="18" fill="#D86C92"/>
  <text x="173" y="507" fill="#FFFFFF" font-size="24" font-family="Inter, Arial, sans-serif" font-weight="700">Content AI</text>
  <rect x="324" y="468" width="156" height="60" rx="18" fill="#221720" stroke="#5A2D42"/>
  <text x="367" y="507" fill="#F2E7ED" font-size="24" font-family="Inter, Arial, sans-serif" font-weight="700">Lead CRM</text>

  <rect x="710" y="126" width="170" height="86" rx="20" fill="#201720" stroke="#603244"/>
  <text x="742" y="157" fill="#C8B6C0" font-size="18" font-family="Inter, Arial, sans-serif">Today's leads</text>
  <text x="742" y="197" fill="#FFFFFF" font-size="40" font-family="Inter, Arial, sans-serif" font-weight="800">38</text>

  <rect x="894" y="126" width="126" height="86" rx="20" fill="#201720" stroke="#603244"/>
  <text x="922" y="157" fill="#C8B6C0" font-size="18" font-family="Inter, Arial, sans-serif">Closed</text>
  <text x="930" y="197" fill="#77E0A5" font-size="40" font-family="Inter, Arial, sans-serif" font-weight="800">12</text>

  <rect x="1034" y="126" width="126" height="86" rx="20" fill="#201720" stroke="#603244"/>
  <text x="1055" y="157" fill="#C8B6C0" font-size="18" font-family="Inter, Arial, sans-serif">Pending</text>
  <text x="1068" y="197" fill="#F6B766" font-size="40" font-family="Inter, Arial, sans-serif" font-weight="800">7</text>

  <text x="710" y="262" fill="#F4D4E2" font-size="24" font-family="Inter, Arial, sans-serif" font-weight="700">Platform highlights</text>
  <text x="710" y="298" fill="#D4C1CA" font-size="19" font-family="Inter, Arial, sans-serif">• Multi-provider AI fallback for stable generation</text>
  <text x="710" y="329" fill="#D4C1CA" font-size="19" font-family="Inter, Arial, sans-serif">• Customer tasks separated from admin review tasks</text>

  <text x="710" y="420" fill="#F4D4E2" font-size="24" font-family="Inter, Arial, sans-serif" font-weight="700">Customer dashboard</text>
  <rect x="710" y="446" width="176" height="28" rx="14" fill="#2A1A26"/>
  <text x="732" y="465" fill="#E8DDE3" font-size="16" font-family="Inter, Arial, sans-serif">AI content • leads • tasks</text>
  <rect x="710" y="490" width="180" height="92" rx="20" fill="#211821" stroke="#603244"/>
  <path d="M730 559H870" stroke="#4A3140" stroke-width="10" stroke-linecap="round"/>
  <path d="M730 533H846" stroke="#D86C92" stroke-width="10" stroke-linecap="round"/>

  <text x="978" y="420" fill="#F4D4E2" font-size="24" font-family="Inter, Arial, sans-serif" font-weight="700">Admin control</text>
  <rect x="978" y="446" width="152" height="28" rx="14" fill="#2A1A26"/>
  <text x="1008" y="465" fill="#E8DDE3" font-size="16" font-family="Inter, Arial, sans-serif">Plans • billing • roles</text>
  <rect x="978" y="490" width="176" height="92" rx="20" fill="#211821" stroke="#603244"/>
  <rect x="998" y="512" width="136" height="18" rx="9" fill="#2F2330"/>
  <rect x="998" y="540" width="92" height="18" rx="9" fill="#D86C92"/>

  <defs>
    <linearGradient id="bg" x1="90" y1="40" x2="1190" y2="680" gradientUnits="userSpaceOnUse">
      <stop stop-color="#341724"/>
      <stop offset="0.48" stop-color="#171116"/>
      <stop offset="1" stop-color="#102118"/>
    </linearGradient>
  </defs>
</svg>
