<svg width="1280" height="760" viewBox="0 0 1280 760" fill="none" xmlns="http://www.w3.org/2000/svg">
  <rect width="1280" height="760" rx="36" fill="#120B12"/>
  <rect x="48" y="48" width="1184" height="664" rx="28" fill="#171118" stroke="#4A2436"/>

  <text x="86" y="116" fill="#F4D4E2" font-size="42" font-family="Inter, Arial, sans-serif" font-weight="800">VELA AI modules</text>
  <text x="86" y="154" fill="#BCA6B0" font-size="22" font-family="Inter, Arial, sans-serif">A clear product snapshot for sales demos, technical reviews, and portfolio presentation.</text>

  <rect x="84" y="204" width="348" height="438" rx="24" fill="#1B141B" stroke="#593244"/>
  <rect x="466" y="204" width="348" height="438" rx="24" fill="#1B141B" stroke="#593244"/>
  <rect x="848" y="204" width="348" height="438" rx="24" fill="#1B141B" stroke="#593244"/>

  <text x="114" y="258" fill="#FFFFFF" font-size="30" font-family="Inter, Arial, sans-serif" font-weight="800">Customer dashboard</text>
  <text x="114" y="295" fill="#CDBAC3" font-size="18" font-family="Inter, Arial, sans-serif">Used daily by spa owners and staff</text>
  <rect x="114" y="328" width="288" height="66" rx="18" fill="#241922"/>
  <text x="136" y="367" fill="#F1E8ED" font-size="20" font-family="Inter, Arial, sans-serif">AI content generation</text>
  <rect x="114" y="410" width="288" height="66" rx="18" fill="#241922"/>
  <text x="136" y="449" fill="#F1E8ED" font-size="20" font-family="Inter, Arial, sans-serif">Lead tracking</text>
  <rect x="114" y="492" width="288" height="66" rx="18" fill="#241922"/>
  <text x="136" y="531" fill="#F1E8ED" font-size="20" font-family="Inter, Arial, sans-serif">Task management</text>
  <rect x="114" y="574" width="288" height="40" rx="20" fill="#D86C92"/>
  <text x="171" y="600" fill="#FFFFFF" font-size="18" font-family="Inter, Arial, sans-serif" font-weight="700">Quota-aware experience</text>

  <text x="496" y="258" fill="#FFFFFF" font-size="30" font-family="Inter, Arial, sans-serif" font-weight="800">Admin center</text>
  <text x="496" y="295" fill="#CDBAC3" font-size="18" font-family="Inter, Arial, sans-serif">Reserved for internal operational control</text>
  <rect x="496" y="328" width="288" height="66" rx="18" fill="#241922"/>
  <text x="518" y="367" fill="#F1E8ED" font-size="20" font-family="Inter, Arial, sans-serif">Plan and role management</text>
  <rect x="496" y="410" width="288" height="66" rx="18" fill="#241922"/>
  <text x="518" y="449" fill="#F1E8ED" font-size="20" font-family="Inter, Arial, sans-serif">Payment review tasks</text>
  <rect x="496" y="492" width="288" height="66" rx="18" fill="#241922"/>
  <text x="518" y="531" fill="#F1E8ED" font-size="20" font-family="Inter, Arial, sans-serif">System-wide oversight</text>
  <rect x="496" y="574" width="288" height="40" rx="20" fill="#E07A5F"/>
  <text x="563" y="600" fill="#FFFFFF" font-size="18" font-family="Inter, Arial, sans-serif" font-weight="700">Separate admin workflow</text>

  <text x="878" y="258" fill="#FFFFFF" font-size="30" font-family="Inter, Arial, sans-serif" font-weight="800">Automation layer</text>
  <text x="878" y="295" fill="#CDBAC3" font-size="18" font-family="Inter, Arial, sans-serif">Stability around AI and social posting</text>
  <rect x="878" y="328" width="288" height="66" rx="18" fill="#241922"/>
  <text x="900" y="367" fill="#F1E8ED" font-size="20" font-family="Inter, Arial, sans-serif">Groq / Cloudflare / OpenRouter / Gemini</text>
  <rect x="878" y="410" width="288" height="66" rx="18" fill="#241922"/>
  <text x="900" y="449" fill="#F1E8ED" font-size="20" font-family="Inter, Arial, sans-serif">Facebook / Instagram publish flow</text>
  <rect x="878" y="492" width="288" height="66" rx="18" fill="#241922"/>
  <text x="900" y="531" fill="#F1E8ED" font-size="20" font-family="Inter, Arial, sans-serif">Failure isolation and fallback</text>
  <rect x="878" y="574" width="288" height="40" rx="20" fill="#5BC88F"/>
  <text x="956" y="600" fill="#FFFFFF" font-size="18" font-family="Inter, Arial, sans-serif" font-weight="700">Operational resilience</text>
</svg>
